<?xml version="1.0" standalone="no"?>
<!DOCTYPE svg PUBLIC "-//W3C//DTD SVG 20010904//EN"
 "http://www.w3.org/TR/2001/REC-SVG-20010904/DTD/svg10.dtd">
<svg version="1.0" xmlns="http://www.w3.org/2000/svg"
 width="2048.000000pt" height="2048.000000pt" viewBox="0 0 2048.000000 2048.000000"
 preserveAspectRatio="xMidYMid meet">
<metadata>
Created by potrace 1.14, written by Peter Selinger 2001-2017
</metadata>
<g transform="translate(0.000000,2048.000000) scale(0.100000,-0.100000)"
fill="#000000" stroke="none">
<path d="M9734 18359 c-1781 -93 -3409 -705 -4769 -1794 -260 -208 -433 -365
-680 -616 -364 -370 -620 -679 -888 -1075 -684 -1009 -1116 -2100 -1291 -3264
-122 -812 -129 -1574 -20 -2355 289 -2071 1404 -3918 3104 -5141 160 -115 291
-200 321 -208 40 -11 -40 55 -196 161 -639 437 -1256 1026 -1732 1653 -422
555 -791 1227 -1048 1905 -470 1239 -609 2597 -404 3940 209 1368 800 2686
1698 3785 224 274 578 643 846 881 866 771 1869 1347 2940 1687 621 198 1256
318 1936 368 290 21 936 20 1239 -1 1206 -85 2441 -455 3592 -1076 167 -90
221 -108 164 -56 -94 87 -564 330 -1004 519 -1187 508 -2542 753 -3808 687z"/>
<path d="M8315 18088 c-85 -16 -372 -97 -550 -155 -710 -231 -1407 -572 -2021
-988 -662 -448 -1282 -1010 -1789 -1620 -460 -555 -925 -1298 -1195 -1910
-323 -731 -514 -1491 -592 -2345 -17 -185 -16 -860 1 -1065 55 -668 194 -1330
419 -1995 201 -594 417 -1061 765 -1655 230 -392 567 -872 567 -807 0 5 -41
67 -92 138 -209 293 -498 767 -637 1042 -51 102 -27 70 35 -46 314 -588 741
-1163 1234 -1666 239 -243 384 -379 611 -568 622 -518 1296 -921 2066 -1234
1027 -418 2031 -614 3132 -614 1169 1 2343 281 3391 811 1007 508 1878 1265
2659 2309 281 376 482 696 665 1060 211 419 342 781 456 1261 160 673 211
1398 149 2126 -14 165 -23 200 -34 130 -4 -27 -1 -127 6 -225 17 -221 18 -767
1 -962 -38 -431 -106 -847 -207 -1267 -91 -378 -135 -495 -355 -938 -286 -578
-612 -1081 -1019 -1569 -291 -349 -664 -720 -1041 -1035 -344 -288 -831 -626
-1130 -784 -291 -154 -788 -350 -1163 -458 -357 -103 -607 -158 -977 -213
-490 -73 -855 -104 -1355 -113 -703 -12 -1278 46 -1934 198 -874 203 -1789
605 -2539 1115 -627 427 -1156 899 -1644 1467 -182 210 -267 322 -400 523
-572 863 -950 1762 -1177 2801 -38 172 -74 283 -91 283 -29 0 -22 -143 17
-345 80 -423 231 -933 402 -1360 47 -117 73 -195 66 -195 -22 0 -159 333 -261
635 -497 1459 -546 3083 -138 4576 52 191 104 356 198 627 45 130 57 190 36
177 -53 -33 -243 -595 -349 -1035 -403 -1663 -237 -3433 464 -4976 152 -334
174 -384 169 -384 -14 0 -240 499 -346 765 -311 782 -492 1589 -548 2444 -14
211 -14 754 0 941 68 929 280 1766 659 2605 334 739 860 1519 1414 2100 700
734 1451 1292 2337 1735 503 252 992 439 1555 595 94 26 181 53 195 61 l25 13
-30 -1 c-16 0 -52 -5 -80 -10z"/>
<path d="M9950 17574 c-30 -2 -136 -8 -235 -14 -290 -17 -713 -72 -998 -130
-1528 -309 -2840 -1018 -3897 -2106 -498 -513 -931 -1130 -1260 -1799 -392
-793 -610 -1561 -702 -2461 -21 -198 -23 -268 -22 -719 2 -605 19 -890 75
-1280 50 -346 143 -756 243 -1075 25 -79 44 -146 42 -148 -5 -5 -124 357 -164
498 -253 887 -337 1720 -267 2655 96 1284 545 2534 1300 3625 384 553 841
1050 1365 1481 487 401 962 700 1563 985 558 265 722 360 703 410 -6 15 -19
16 -109 11 -105 -6 -294 -53 -452 -112 -175 -66 -611 -282 -865 -427 -882
-507 -1686 -1218 -2285 -2023 -744 -999 -1222 -2125 -1420 -3345 -67 -414 -90
-774 -82 -1285 6 -374 19 -575 57 -882 113 -915 398 -1809 847 -2656 620
-1170 1617 -2223 2753 -2909 1063 -641 2216 -1002 3445 -1079 240 -15 835 -6
1075 15 1165 106 2216 446 3178 1028 530 321 937 640 1372 1077 567 568 980
1139 1345 1861 144 285 185 381 185 431 0 43 -17 34 -65 -35 -53 -75 -101
-161 -85 -151 42 26 -310 -536 -508 -809 -386 -535 -895 -1084 -1387 -1496
-476 -399 -1081 -778 -1654 -1036 -270 -121 -271 -122 -526 -185 -376 -95
-831 -177 -1200 -218 -162 -18 -414 -37 -340 -25 730 115 1343 290 1905 544
528 239 990 520 1420 865 884 710 1605 1703 2025 2794 18 47 36 94 40 104 5
12 2 17 -9 17 -12 0 -14 7 -9 33 l6 32 -22 -19 c-28 -26 -75 -108 -96 -171
-19 -59 -173 -359 -272 -530 -306 -530 -653 -983 -1088 -1421 -504 -507 -978
-859 -1622 -1204 -707 -380 -1552 -656 -2293 -749 -721 -90 -1325 -88 -1986 9
-795 116 -1614 394 -2332 792 -451 250 -868 547 -1272 908 -747 668 -1289
1428 -1695 2375 -166 387 -276 735 -405 1278 -39 164 -74 267 -91 267 -5 0 -9
-5 -9 -12 0 -30 -13 8 -26 74 -58 307 -114 857 -114 1138 0 58 -5 148 -11 200
-13 119 -12 162 7 330 63 556 218 1174 427 1705 48 122 130 306 111 250 -4
-11 -40 -117 -80 -235 -267 -784 -387 -1649 -344 -2465 50 -932 243 -1705 635
-2545 441 -943 1077 -1733 1937 -2406 313 -244 612 -430 1018 -633 724 -361
1441 -564 2250 -636 317 -28 830 -32 830 -5 0 14 -54 20 -285 30 -566 25 -940
78 -1420 200 -426 109 -775 237 -1181 435 -1411 685 -2533 1888 -3129 3353
-407 1001 -559 2073 -449 3162 22 223 102 537 253 990 263 789 626 1505 1074
2118 343 470 690 837 1182 1250 268 225 357 322 295 322 -56 0 -303 -170 -560
-384 -58 -48 -82 -66 -55 -40 141 133 464 386 670 524 272 182 768 426 1195
588 243 92 329 132 378 177 48 43 197 97 487 176 889 244 1868 300 2805 164
620 -91 1231 -265 1805 -515 258 -112 701 -348 945 -503 549 -349 1095 -817
1524 -1307 664 -758 1119 -1555 1461 -2560 42 -124 87 -244 100 -266 48 -83
75 -60 75 63 -1 152 -33 303 -125 578 -407 1222 -1157 2303 -2180 3140 -1034
848 -2336 1414 -3655 1589 -493 66 -1109 78 -1606 31 -1542 -144 -2970 -775
-4124 -1821 -161 -146 -532 -520 -682 -686 -322 -359 -570 -694 -807 -1093
-125 -212 -135 -225 -70 -100 722 1390 1931 2544 3362 3207 808 375 1608 586
2552 675 271 25 995 25 1280 0 800 -72 1482 -229 2200 -505 634 -243 1206
-563 1794 -1001 389 -290 882 -748 1197 -1111 803 -927 1373 -2039 1649 -3218
78 -335 116 -557 164 -980 30 -253 42 -315 62 -295 31 31 37 241 14 453 -123
1110 -446 2071 -1018 3020 -369 613 -861 1209 -1412 1709 -399 363 -892 721
-1370 996 -1066 611 -2187 962 -3387 1060 -171 14 -755 27 -868 19z m-6367
-4679 c-3 -9 -8 -14 -10 -11 -3 3 -2 9 2 15 9 16 15 13 8 -4z m-359 -5115 c5
-17 4 -20 -2 -10 -5 8 -13 26 -16 40 -5 17 -4 20 2 10 5 -8 13 -26 16 -40z
m2891 -3560 c338 -207 669 -368 1145 -557 666 -265 1275 -426 1960 -517 578
-78 1319 -80 1953 -6 206 24 236 24 97 -1 -332 -60 -665 -89 -1090 -96 -452
-8 -789 15 -1225 82 -967 150 -1939 514 -2767 1037 -87 55 -158 102 -158 104
0 3 3 3 8 1 4 -3 39 -24 77 -47z m4818 -987 c-7 -2 -19 -2 -25 0 -7 3 -2 5 12
5 14 0 19 -2 13 -5z m480 -70 c-7 -2 -19 -2 -25 0 -7 3 -2 5 12 5 14 0 19 -2
13 -5z"/>
<path d="M3552 11114 c-39 -99 -62 -347 -69 -739 -11 -603 49 -1120 198 -1695
275 -1066 854 -2054 1627 -2777 220 -206 428 -377 624 -513 145 -100 96 -25
-60 92 -302 227 -455 361 -697 609 -511 524 -944 1211 -1225 1944 -217 568
-341 1123 -392 1760 -19 244 -16 760 6 1052 14 174 17 258 10 274 -10 22 -10
22 -22 -7z"/>
<path d="M5365 11047 c-19 -7 -159 -12 -385 -14 -195 -1 -370 -3 -387 -3 -26
0 -33 -4 -33 -19 0 -25 19 -31 104 -31 84 0 159 -22 179 -53 7 -12 19 -50 26
-84 12 -54 11 -66 -4 -107 -15 -38 -15 -48 -5 -61 21 -26 26 -212 7 -258 -9
-20 -23 -40 -32 -43 -21 -8 -19 -21 5 -29 21 -7 27 -39 9 -50 -7 -5 -5 -13 7
-26 11 -13 15 -28 11 -51 -4 -18 -6 -85 -6 -148 0 -63 0 -135 0 -159 0 -25 5
-51 11 -58 7 -9 9 -39 5 -88 -4 -41 -3 -85 2 -97 13 -34 -2 -62 -53 -98 -28
-21 -47 -43 -51 -60 -6 -25 -16 -31 -105 -60 -124 -41 -125 -42 -111 -69 11
-20 19 -21 162 -21 109 0 166 4 206 16 35 10 68 13 91 9 21 -4 55 -6 77 -5
378 10 383 11 389 26 10 27 -3 34 -65 34 -54 0 -60 2 -71 26 -7 15 -23 27 -39
31 -37 7 -39 24 -38 287 1 262 10 303 75 349 44 31 79 29 69 -4 -5 -14 0 -22
19 -28 18 -8 25 -19 28 -43 2 -23 9 -34 22 -36 23 -5 55 -41 56 -63 0 -9 13
-43 30 -75 16 -32 30 -66 30 -75 0 -9 10 -31 23 -50 13 -19 34 -60 47 -92 13
-31 28 -57 33 -57 5 0 7 -15 4 -34 -4 -28 -1 -37 16 -49 l22 -15 -23 -25 c-13
-14 -43 -30 -67 -36 -52 -13 -61 -24 -39 -45 13 -13 43 -16 172 -16 86 -1 177
-5 202 -10 25 -5 119 -12 210 -16 161 -6 200 -3 278 27 24 9 24 10 7 29 -14
16 -31 20 -83 20 -43 0 -74 6 -93 17 -27 16 -129 141 -129 158 0 18 -97 205
-125 240 -41 52 -121 181 -177 285 -17 30 -35 62 -42 70 -20 27 -33 55 -40 87
-4 17 -14 37 -22 44 -8 6 -14 19 -14 27 0 9 -18 35 -41 58 l-41 41 58 49 c48
40 200 188 231 224 25 29 108 102 173 151 67 50 83 58 150 69 89 14 145 3 173
-35 16 -22 20 -66 17 -175 -1 -14 1 -59 4 -100 8 -95 13 -192 21 -352 6 -123
5 -127 -18 -154 -23 -27 -24 -28 -6 -43 21 -18 25 -81 13 -193 -8 -75 6 -163
37 -235 23 -54 138 -176 182 -194 18 -7 43 -22 57 -34 14 -12 48 -27 75 -33
28 -6 91 -20 140 -31 50 -12 112 -21 138 -21 50 0 138 21 194 46 17 8 45 14
61 14 17 0 34 5 37 10 3 6 14 10 23 10 10 0 33 9 52 20 19 11 55 29 79 41 52
23 100 76 141 152 24 45 30 72 40 187 28 322 24 587 -11 790 -21 120 -22 157
-5 206 31 91 136 143 292 144 89 0 93 -1 132 -32 23 -18 44 -42 48 -53 4 -10
13 -25 20 -33 12 -11 20 -78 16 -132 -1 -8 -4 -127 -7 -265 -4 -137 -10 -254
-15 -259 -5 -4 -6 -23 -3 -41 3 -19 0 -35 -6 -39 -16 -11 -13 -46 4 -46 20 0
20 -44 0 -60 -14 -12 -14 -15 1 -31 14 -15 14 -25 5 -70 -10 -45 -9 -53 6 -64
15 -11 18 -29 18 -113 0 -90 -2 -103 -23 -124 -25 -27 -28 -48 -10 -66 27 -27
-100 -81 -189 -82 -52 0 -133 -25 -133 -40 0 -16 34 -17 355 -12 212 3 364 0
450 -8 72 -7 159 -13 195 -12 155 1 347 10 368 16 12 4 61 0 108 -10 55 -10
110 -15 152 -11 59 4 69 8 94 38 28 32 29 36 24 109 -3 41 -7 111 -10 155 -3
44 -11 118 -16 165 -6 47 -8 123 -5 170 8 106 3 120 -41 120 -19 0 -34 -1 -35
-2 0 -2 -8 -48 -18 -103 -25 -136 -49 -199 -115 -305 -22 -36 -51 -76 -63 -90
-13 -14 -44 -48 -69 -77 -28 -31 -67 -62 -102 -79 -31 -15 -66 -32 -77 -38
-11 -5 -67 -12 -124 -14 -82 -4 -116 -1 -163 14 -64 21 -128 72 -128 103 0 11
-4 23 -10 26 -5 3 -10 19 -10 34 0 15 -5 42 -11 60 -9 26 -8 38 9 71 18 36 18
40 3 45 -15 4 -16 16 -13 78 3 39 7 137 11 217 3 80 10 151 14 157 4 7 3 22
-3 34 -8 15 -8 29 -1 51 8 22 8 35 0 44 -8 10 -6 21 7 43 16 27 16 31 2 53
-11 16 -14 38 -11 68 3 25 6 68 7 95 1 35 9 60 26 83 l25 34 -30 24 -29 23 20
27 c11 15 27 30 35 34 43 20 54 29 57 43 2 11 -6 17 -30 19 -18 2 -32 8 -31
13 2 12 97 35 168 41 81 7 95 12 95 35 0 20 -4 20 -87 14 -132 -9 -297 -8
-508 4 -138 8 -994 9 -1043 1 -2 0 -2 -10 0 -22 2 -17 10 -24 33 -26 17 -1 54
-10 84 -20 67 -21 107 -71 149 -187 61 -170 64 -197 65 -574 2 -371 -1 -394
-54 -510 -22 -48 -128 -159 -169 -177 -91 -41 -107 -45 -231 -46 l-125 -1 -55
35 c-87 57 -102 82 -119 213 -19 133 -21 195 -11 305 5 65 5 129 -1 167 -8 50
-6 67 6 92 11 20 13 37 8 53 -5 13 -7 55 -4 93 2 39 3 84 2 100 -3 35 -1 311
2 340 4 26 34 74 62 97 17 14 41 17 119 18 l98 0 -3 27 c-5 44 -59 56 -182 42
-64 -8 -311 -13 -666 -14 -573 -1 -680 -8 -680 -40 0 -16 92 -45 140 -45 35 0
38 -3 54 -43 18 -47 21 -83 7 -91 -4 -3 -11 -28 -15 -55 -7 -53 5 -40 -190
-211 -28 -25 -100 -97 -161 -160 -158 -164 -176 -181 -188 -177 -17 5 -29 76
-23 137 3 30 1 100 -4 155 -5 55 -14 151 -20 214 -7 79 -8 117 0 125 5 5 10
27 10 48 0 28 7 44 26 61 34 30 55 35 146 36 79 1 128 13 128 30 0 35 -137 53
-205 28z m2315 -107 c0 -5 -9 -10 -20 -10 -11 0 -20 5 -20 10 0 6 9 10 20 10
11 0 20 -4 20 -10z m705 -30 c-3 -5 -13 -10 -21 -10 -8 0 -14 5 -14 10 0 6 9
10 21 10 11 0 17 -4 14 -10z m-1745 -25 c0 -2 -9 -9 -19 -14 -14 -8 -22 -7
-31 4 -11 13 -8 15 19 15 17 0 31 -2 31 -5z m1860 1 c0 -7 -106 -74 -128 -81
-22 -6 -22 -5 -10 14 7 12 17 21 23 21 6 0 26 11 45 25 30 21 70 33 70 21z
m-1700 -25 c0 -12 -44 -54 -85 -82 -19 -13 -35 -32 -35 -41 0 -19 -48 -48 -80
-48 -17 0 -20 6 -20 41 0 23 5 59 11 80 11 36 14 38 53 38 23 -1 52 4 66 9 31
13 90 15 90 3z m-1730 -90 c0 -25 -6 -31 -44 -44 -40 -14 -45 -14 -50 0 -10
26 3 51 32 62 49 17 62 14 62 -18z m3410 4 c0 -11 -35 -45 -47 -45 -20 0 -15
16 10 33 22 16 37 21 37 12z m-75 -55 c-3 -5 -15 -10 -26 -10 -11 0 -17 5 -14
10 3 6 15 10 26 10 11 0 17 -4 14 -10z m-1625 -29 c0 -6 -4 -13 -10 -16 -5 -3
-10 -13 -10 -21 0 -11 6 -13 20 -9 28 9 25 -11 -5 -32 -14 -10 -37 -28 -52
-40 l-27 -22 22 -24 c19 -20 20 -25 8 -30 -8 -3 -19 0 -25 7 -11 14 -67 10
-77 -5 -3 -5 -14 -9 -25 -9 -39 0 -11 95 38 127 15 10 38 26 50 37 43 37 93
57 93 37z m1728 -20 c14 -8 -34 -43 -134 -98 -40 -21 -42 -21 -37 -3 3 11 15
22 27 26 11 4 23 9 26 13 3 3 22 21 43 39 39 33 53 38 75 23z m-3328 -96 c0
-19 -36 -39 -45 -24 -4 6 1 17 11 24 24 18 34 19 34 0z m3270 -45 c0 -5 -5
-10 -11 -10 -5 0 -7 5 -4 10 3 6 8 10 11 10 2 0 4 -4 4 -10z m-3410 -34 c0 -9
-7 -12 -20 -9 -11 3 -20 9 -20 14 0 5 9 9 20 9 11 0 20 -6 20 -14z m3375 4
c-3 -5 -13 -10 -21 -10 -8 0 -14 5 -14 10 0 6 9 10 21 10 11 0 17 -4 14 -10z
m-3235 -36 c0 -12 -3 -14 -13 -6 -7 6 -30 12 -52 15 -36 3 -35 4 13 5 42 2 52
-1 52 -14z m3190 12 c0 -3 -4 -8 -10 -11 -5 -3 -10 -1 -10 4 0 6 5 11 10 11 6
0 10 -2 10 -4z m-3300 -26 c0 -5 -4 -10 -10 -10 -5 0 -10 5 -10 10 0 6 5 10
10 10 6 0 10 -4 10 -10z m-33 -26 c2 -7 -10 -17 -27 -23 -26 -8 -32 -8 -37 5
-3 9 0 20 8 25 18 12 51 7 56 -7z m131 -34 c21 0 -4 -37 -30 -46 -13 -4 -25
-10 -28 -13 -3 -3 -30 -15 -60 -25 -30 -11 -58 -24 -62 -30 -4 -6 -10 -7 -14
-3 -11 10 64 85 106 107 19 10 44 16 55 14 11 -2 26 -4 33 -4z m3241 -74 c-13
-14 -27 -22 -32 -19 -11 6 24 42 42 42 8 1 4 -8 -10 -23z m-1609 -68 c0 -18
-10 -27 -43 -40 -23 -10 -50 -18 -59 -18 -9 0 -20 -9 -23 -20 -6 -20 -43 -46
-52 -37 -11 12 10 48 35 61 15 8 40 28 56 45 37 39 86 44 86 9z m-1737 -25
c-7 -2 -21 -2 -30 0 -10 3 -4 5 12 5 17 0 24 -2 18 -5z m3481 -14 c29 -34 19
-130 -17 -163 -15 -14 -27 -30 -27 -36 0 -5 -5 -10 -12 -10 -6 0 -19 -6 -27
-14 -16 -14 -39 -19 -73 -17 -23 1 -35 59 -15 74 9 7 30 23 48 37 17 14 50 42
73 63 l40 37 -37 0 c-20 0 -37 -4 -37 -10 0 -5 -10 -12 -23 -15 -12 -4 -27
-16 -32 -28 -11 -25 -55 -37 -55 -14 0 7 11 20 25 27 14 7 25 17 25 21 0 11
74 49 95 49 8 0 15 5 15 10 0 16 14 11 34 -11z m-2809 -9 c4 -6 -11 -10 -37
-10 -31 0 -39 3 -28 10 20 13 57 13 65 0z m-91 -28 c8 -13 -20 -42 -53 -53
-35 -12 -44 -9 -36 12 10 27 78 59 89 41z m88 -34 c-6 -6 -19 -7 -29 -3 -17 7
-17 8 2 15 24 9 41 2 27 -12z m-568 -14 c15 -6 15 -8 -1 -19 -10 -7 -18 -21
-18 -30 0 -15 -34 -38 -95 -65 -8 -4 -21 -19 -28 -33 -14 -29 -46 -36 -56 -12
-3 9 3 23 14 33 11 9 33 29 49 43 15 15 45 35 65 44 21 10 40 24 43 32 6 15 6
15 27 7z m-184 -40 c0 -2 -7 -4 -15 -4 -8 0 -15 4 -15 10 0 5 7 7 15 4 8 -4
15 -8 15 -10z m696 -49 c-29 -27 -51 -29 -51 -4 0 8 11 16 25 17 14 2 29 8 34
13 5 5 12 7 14 4 3 -3 -7 -16 -22 -30z m-491 -35 c9 -29 -2 -40 -40 -40 -47 0
-51 14 -12 39 40 26 44 26 52 1z m495 -51 c0 -5 -11 -9 -25 -9 -24 0 -32 10
-19 22 8 8 44 -3 44 -13z m146 -46 c-11 -13 -28 -23 -38 -23 -11 0 -18 -7 -18
-20 0 -19 4 -20 69 -14 58 6 73 4 87 -10 9 -10 27 -24 40 -33 31 -20 22 -33
-21 -33 -32 0 -54 -13 -38 -23 5 -3 28 -2 53 3 31 6 47 5 52 -3 13 -20 3 -32
-33 -37 l-34 -6 32 -8 c47 -11 49 -23 9 -47 -20 -12 -36 -25 -36 -30 0 -14
-66 -43 -83 -36 -9 3 -13 13 -10 25 4 15 -2 21 -26 25 -33 7 -43 27 -13 27 21
0 66 43 55 53 -10 11 -71 8 -78 -3 -10 -16 -25 -12 -25 7 0 21 39 63 58 63 22
0 6 13 -20 17 -12 2 -28 9 -36 16 -8 6 -24 11 -34 9 -17 -3 -67 34 -68 50 0 3
30 27 67 52 l67 45 21 -22 21 -22 -20 -22z m-757 32 c-13 -13 -29 -25 -36 -25
-6 0 -13 -6 -16 -12 -2 -7 -7 -10 -10 -7 -4 3 -1 20 5 37 11 27 17 32 46 32
l34 0 -23 -25z m1709 -2 c-4 -20 -30 -28 -56 -18 -15 6 -13 8 8 20 34 19 52
18 48 -2z m-1593 -48 c0 -26 -4 -30 -40 -37 -52 -11 -95 -28 -95 -39 0 -5 -7
-9 -16 -9 -8 0 -22 -7 -31 -15 -18 -18 -33 -11 -33 16 0 14 7 19 30 19 16 0
37 8 47 18 10 10 34 29 53 43 63 46 85 47 85 4z m3345 -23 c0 -30 -32 -72 -54
-72 -8 0 -30 -17 -50 -37 -19 -20 -38 -34 -42 -31 -13 14 17 74 47 93 17 11
37 32 45 48 20 37 54 37 54 -1z m-1755 -23 c-8 -12 -35 -12 -35 0 0 11 22 20
33 14 4 -2 5 -9 2 -14z m-1595 -64 c0 -23 -4 -25 -45 -25 -25 0 -45 3 -45 7 0
18 36 43 62 43 23 0 28 -4 28 -25z m585 15 c3 -5 -1 -10 -10 -10 -9 0 -13 5
-10 10 3 6 8 10 10 10 2 0 7 -4 10 -10z m1040 0 c3 -5 -1 -10 -10 -10 -9 0
-13 5 -10 10 3 6 8 10 10 10 2 0 7 -4 10 -10z m1703 -62 c-6 -18 -28 -21 -28
-4 0 9 7 16 16 16 9 0 14 -5 12 -12z m-3344 -55 c-21 -15 -59 -14 -59 2 0 6
15 11 33 13 17 2 32 9 33 15 0 7 3 6 6 -2 3 -8 -3 -20 -13 -28z m3236 -23 c0
-5 -7 -10 -16 -10 -8 0 -12 5 -9 10 3 6 10 10 16 10 5 0 9 -4 9 -10z m127 -32
c-3 -8 -6 -5 -6 6 -1 11 2 17 5 13 3 -3 4 -12 1 -19z m-1694 -34 c-2 -6 -20
-15 -39 -19 -20 -3 -41 -8 -48 -11 -7 -3 -25 7 -40 21 l-27 25 53 1 c29 0 62
4 73 8 22 9 36 -4 28 -25z m-776 10 c-3 -3 -12 -4 -19 -1 -8 3 -5 6 6 6 11 1
17 -2 13 -5z m2440 0 c-3 -3 -12 -4 -19 -1 -8 3 -5 6 6 6 11 1 17 -2 13 -5z
m-47 -22 c0 -5 -20 -23 -44 -40 -43 -31 -76 -41 -76 -23 0 10 45 41 60 41 6 0
18 7 26 15 17 16 34 20 34 7z m110 -32 c0 -5 -5 -10 -11 -10 -5 0 -7 5 -4 10
3 6 8 10 11 10 2 0 4 -4 4 -10z m940 3 c0 -12 -33 -43 -47 -43 -13 0 -18 31
-6 43 8 9 53 9 53 0z m-960 -27 c0 -11 -19 -15 -25 -6 -3 5 1 10 9 10 9 0 16
-2 16 -4z m-2416 -22 c28 -11 17 -24 -18 -24 -19 0 -36 -5 -38 -11 -2 -6 -15
-9 -28 -7 -23 3 -21 6 20 25 54 26 45 24 64 17z m3306 -8 c0 -9 -30 -14 -35
-6 -4 6 3 10 14 10 12 0 21 -2 21 -4z"/>
<path d="M5863 9813 c9 -2 23 -2 30 0 6 3 -1 5 -18 5 -16 0 -22 -2 -12 -5z"/>
<path d="M10790 11007 c-36 -17 -51 -33 -72 -76 -32 -62 -34 -93 -14 -143 18
-42 32 -54 71 -61 17 -3 43 -9 58 -13 39 -9 131 22 166 57 46 45 57 90 37 152
-22 70 -23 71 -83 90 -68 22 -109 21 -163 -6z m160 -97 c0 -5 -7 -10 -15 -10
-8 0 -15 5 -15 10 0 6 7 10 15 10 8 0 15 -4 15 -10z"/>
<path d="M10057 11011 c-42 -9 -82 -54 -100 -111 -24 -75 -22 -97 16 -131 50
-47 86 -62 153 -63 52 -1 66 3 98 28 21 15 40 36 43 45 3 9 11 30 19 48 19 42
18 47 -12 99 -16 27 -41 52 -63 63 -42 21 -114 32 -154 22z m133 -177 c0 -16
-23 -44 -35 -44 -18 0 -19 5 -3 30 12 18 38 28 38 14z"/>
<path d="M13215 10490 c-51 -9 -105 -30 -137 -52 -14 -10 -22 -8 -48 17 -35
34 -49 35 -224 17 -66 -7 -145 -10 -177 -6 -58 6 -134 -10 -124 -26 3 -5 22
-14 43 -21 20 -6 44 -17 52 -24 8 -7 24 -15 35 -17 23 -4 39 -54 36 -118 -2
-54 -2 -86 3 -215 3 -88 1 -102 -15 -118 -24 -22 -24 -30 -1 -51 17 -14 19
-35 20 -178 l2 -162 -32 -33 c-18 -18 -42 -33 -53 -33 -25 0 -72 -37 -61 -48
4 -4 136 -6 293 -5 226 1 288 4 294 15 13 20 6 31 -27 40 -16 4 -40 17 -54 27
-24 19 -25 24 -25 130 0 80 -3 112 -12 116 -17 6 -17 89 -1 115 10 16 10 24 0
40 -16 26 -15 45 3 79 12 25 13 31 0 41 -10 8 -11 18 -5 35 5 13 5 36 1 51 -9
34 5 122 23 144 7 8 17 27 24 42 15 36 79 106 113 124 42 21 106 18 119 -5 5
-11 7 -26 4 -35 -3 -8 2 -19 14 -25 22 -12 36 -87 24 -123 -5 -13 -4 -68 0
-123 5 -55 9 -109 10 -120 1 -40 -12 -118 -23 -131 -7 -9 -6 -20 6 -38 10 -14
15 -33 12 -41 -4 -8 -2 -28 4 -44 7 -20 7 -51 0 -98 -24 -149 -21 -144 -76
-172 -28 -14 -49 -30 -47 -36 1 -6 110 -10 303 -9 257 1 303 3 316 17 25 25 6
37 -57 37 -48 0 -64 5 -87 24 -24 21 -28 32 -31 88 -7 136 -6 152 6 156 17 5
15 31 -3 38 -9 4 -15 19 -15 36 0 24 6 32 30 41 l29 11 -29 13 c-37 15 -40 53
-9 82 l22 20 -24 11 c-23 10 -24 16 -22 86 1 51 8 84 19 101 13 21 14 27 3 34
-8 5 -17 9 -20 9 -14 0 -17 30 -7 58 11 28 8 35 -30 85 -25 34 -64 69 -103 92
-56 35 -68 38 -147 41 -48 1 -110 -1 -137 -6z m250 -100 c4 -6 -5 -10 -19 -10
-14 0 -26 5 -26 10 0 6 9 10 19 10 11 0 23 -4 26 -10z m35 -49 c0 -8 -54 -41
-67 -41 -6 0 -3 37 4 43 10 10 63 8 63 -2z m-620 -280 c0 -16 -49 -61 -67 -60
-11 0 -13 3 -5 6 6 2 12 10 12 15 0 6 8 19 18 29 18 19 42 25 42 10z m655 -28
c-4 -10 -10 -27 -12 -38 -4 -17 -69 -55 -96 -55 -21 0 -2 40 35 72 46 40 86
51 73 21z m-5 -231 c0 -28 -85 -91 -101 -75 -16 16 -1 37 41 57 22 11 40 23
40 28 0 4 5 8 10 8 6 0 10 -8 10 -18z m-640 -137 c-11 -35 -39 -55 -76 -55
-23 0 -17 14 27 64 48 54 69 50 49 -9z"/>
<path d="M10125 10448 c-16 -7 -113 -14 -215 -17 -176 -6 -185 -7 -185 -26 0
-18 8 -20 97 -25 128 -7 159 -33 126 -105 -10 -23 -10 -28 5 -36 25 -15 23
-102 -3 -145 l-21 -33 21 -11 c22 -12 21 -30 -2 -78 -9 -17 -9 -25 0 -34 8 -8
12 -64 12 -180 0 -151 -2 -173 -21 -209 -11 -23 -18 -47 -15 -56 8 -19 -66
-52 -119 -53 -40 -1 -75 -18 -75 -37 0 -6 14 -16 31 -24 25 -10 43 -10 88 -1
68 14 468 16 526 2 51 -12 125 -2 133 18 9 25 -28 42 -92 42 -61 0 -90 12
-131 53 -34 35 -35 194 -1 651 2 33 0 70 -5 82 -5 14 -4 35 3 55 8 24 8 37 -1
50 -6 10 -11 34 -11 52 0 21 -8 41 -19 51 -24 22 -87 29 -126 14z m38 -182 c8
-21 -41 -52 -57 -36 -8 8 -5 16 14 30 30 24 36 24 43 6z m11 -217 c-2 -40 -9
-78 -15 -85 -6 -8 -8 -29 -5 -51 10 -60 -5 -96 -43 -106 -19 -4 -40 -6 -48 -3
-13 5 -12 8 1 21 15 15 13 38 -7 63 -20 26 60 192 93 192 6 0 10 9 10 20 0 11
4 20 8 20 5 0 7 -32 6 -71z m-18 -288 c-9 -50 -10 -64 -5 -81 3 -11 -6 -16
-31 -18 -28 -2 -41 3 -60 23 -29 31 -19 57 26 65 19 3 33 15 42 33 18 37 35
24 28 -22z"/>
<path d="M11625 10443 c-118 -37 -199 -93 -254 -175 -39 -60 -39 -88 1 -144
50 -70 143 -107 210 -85 42 14 101 74 121 122 14 34 14 39 -4 68 -10 16 -36
39 -59 51 -45 23 -50 40 -19 69 22 20 103 47 129 42 8 -1 42 -5 75 -9 l60 -7
14 -56 c14 -55 14 -57 -12 -104 -21 -37 -25 -51 -16 -62 9 -10 9 -24 1 -51 -5
-20 -10 -56 -10 -80 0 -23 -2 -45 -5 -48 -12 -13 -87 -27 -177 -33 -96 -8
-140 -19 -217 -53 -70 -32 -92 -56 -138 -152 -41 -86 -43 -94 -34 -136 6 -25
13 -58 16 -74 7 -34 95 -124 143 -147 83 -39 107 -44 220 -44 127 0 115 -4
215 80 l48 40 26 -31 c29 -34 55 -49 149 -88 72 -29 92 -31 142 -12 109 41
137 64 183 153 25 47 28 63 30 173 2 135 0 140 -65 140 -45 0 -48 -9 -45 -167
1 -77 -2 -116 -11 -125 -6 -6 -12 -19 -12 -28 0 -9 -10 -26 -23 -38 -19 -18
-26 -20 -47 -9 -35 18 -52 59 -54 136 -1 37 -6 73 -10 80 -5 8 -1 23 12 40 16
22 17 30 7 44 -21 29 -5 314 19 329 8 5 6 15 -5 35 -9 15 -20 63 -24 105 -4
48 -13 86 -24 100 -9 13 -23 36 -31 51 -15 29 -56 57 -85 57 -10 0 -31 6 -48
14 -68 30 -96 35 -217 40 -97 4 -136 1 -175 -11z m-20 -243 c3 -5 -1 -10 -10
-10 -9 0 -13 5 -10 10 3 6 8 10 10 10 2 0 7 -4 10 -10z m5 -54 c0 -11 -19 -15
-25 -6 -3 5 1 10 9 10 9 0 16 -2 16 -4z m-45 -26 c4 -6 -5 -10 -20 -10 -15 0
-24 4 -20 10 3 6 12 10 20 10 8 0 17 -4 20 -10z m538 -65 c-3 -8 -10 -15 -16
-15 -7 0 -7 -4 1 -12 21 -21 13 -55 -19 -87 -34 -35 -75 -49 -92 -32 -14 14
28 61 55 61 24 0 23 21 -1 27 -19 5 -19 6 -2 36 23 41 89 60 74 22z m-247
-153 c7 -4 10 -42 8 -107 -2 -55 2 -129 7 -165 9 -52 8 -72 -3 -98 -19 -44
-81 -108 -124 -128 -32 -15 -37 -15 -51 -2 -16 17 -35 91 -37 145 -1 17 -4 35
-8 39 -14 13 -8 43 9 53 17 9 17 10 0 28 -19 22 -22 49 -7 58 6 3 10 20 10 36
0 18 9 39 24 54 14 13 27 33 30 43 4 13 25 25 59 34 63 19 69 20 83 10z m181
-58 c-3 -3 -12 -4 -19 -1 -8 3 -5 6 6 6 11 1 17 -2 13 -5z m-497 -14 c12 -8
11 -13 -9 -34 -22 -23 -68 -42 -78 -32 -11 11 10 47 35 61 32 17 33 17 52 5z
m-19 -114 c-8 -10 -9 -16 -1 -21 16 -10 12 -53 -7 -87 -13 -21 -14 -32 -7 -35
17 -6 5 -42 -17 -54 -32 -17 -70 0 -86 38 -10 26 -11 38 -3 48 7 8 9 23 5 35
-3 11 -2 20 3 20 6 0 23 14 39 30 15 17 34 30 41 30 7 0 15 7 19 16 4 10 9 12
16 5 7 -7 6 -15 -2 -25z m560 -261 c-1 -15 -24 -12 -29 3 -3 9 2 13 12 10 10
-1 17 -7 17 -13z"/>
<path d="M14235 10443 c-27 -9 -66 -23 -86 -32 -56 -26 -144 -108 -173 -162
-29 -52 -28 -54 19 -140 20 -36 100 -74 156 -74 74 0 155 66 175 143 10 36
-15 71 -68 98 -26 13 -48 29 -48 35 0 35 125 94 167 78 13 -5 44 -9 68 -9 34
0 47 -5 59 -22 22 -32 20 -110 -3 -149 -13 -21 -18 -42 -14 -60 3 -15 1 -41
-5 -57 -6 -17 -6 -35 -1 -44 5 -9 4 -28 -2 -46 -9 -26 -20 -34 -64 -47 -29 -8
-82 -15 -118 -15 -93 0 -233 -44 -286 -91 -17 -14 -49 -66 -73 -115 l-43 -89
16 -65 c20 -82 27 -96 81 -146 46 -43 97 -74 121 -74 8 0 28 -7 43 -15 20 -10
60 -15 130 -15 l102 0 58 43 c33 24 65 51 73 60 19 24 23 22 75 -27 26 -24 57
-46 69 -49 12 -3 48 -15 80 -27 69 -26 97 -23 187 23 55 27 69 41 100 92 32
52 38 73 48 167 11 90 10 112 -2 141 -17 42 -59 57 -87 31 -24 -21 -34 -94
-20 -135 20 -57 -22 -217 -61 -231 -24 -9 -55 10 -71 44 -21 44 -26 200 -7
222 11 14 11 21 0 41 -18 34 -6 302 15 325 12 14 12 19 1 36 -7 10 -18 60 -24
109 -7 53 -18 94 -25 100 -8 6 -17 20 -21 32 -9 28 -62 73 -85 73 -10 0 -47
11 -83 24 -89 32 -298 43 -373 19z m-20 -243 c3 -5 1 -10 -4 -10 -6 0 -11 5
-11 10 0 6 2 10 4 10 3 0 8 -4 11 -10z m495 -30 c0 -5 -4 -10 -10 -10 -5 0
-10 5 -10 10 0 6 5 10 10 10 6 0 10 -4 10 -10z m-530 -50 c0 -5 -9 -10 -20
-10 -11 0 -20 5 -20 10 0 6 9 10 20 10 11 0 20 -4 20 -10z m540 -59 c0 -6 -4
-12 -8 -15 -5 -3 -7 -19 -4 -36 5 -38 -15 -70 -62 -95 -26 -14 -39 -16 -47 -8
-15 15 9 52 39 59 23 6 29 19 12 29 -16 10 -12 33 10 55 20 20 60 27 60 11z
m-240 -161 c12 -7 12 -15 2 -42 -8 -24 -9 -44 -2 -69 6 -21 7 -46 2 -59 -5
-14 -4 -52 4 -94 14 -82 9 -101 -42 -163 -32 -39 -97 -83 -123 -83 -18 0 -42
71 -46 133 -2 31 -9 65 -14 75 -7 12 -5 22 6 34 15 17 15 20 -2 38 -18 20 -18
22 -1 51 10 17 16 39 13 49 -3 12 6 29 24 46 16 15 29 33 29 40 0 17 13 24 69
39 58 16 63 17 81 5z m170 -60 c0 -5 -2 -10 -4 -10 -3 0 -8 5 -11 10 -3 6 -1
10 4 10 6 0 11 -4 11 -10z m-506 -6 c9 -3 16 -10 16 -15 0 -16 -37 -46 -63
-51 -38 -7 -41 17 -6 47 34 28 32 27 53 19z m-8 -109 c-3 -8 -1 -28 5 -44 8
-23 7 -36 -6 -60 -9 -19 -13 -41 -9 -56 13 -54 -48 -74 -91 -30 -26 25 -33 69
-15 80 8 5 7 11 0 20 -9 11 -5 17 19 30 17 8 31 21 31 28 0 11 45 44 64 46 4
1 6 -6 2 -14z m549 -185 c3 -5 1 -10 -4 -10 -6 0 -11 5 -11 10 0 6 2 10 4 10
3 0 8 -4 11 -10z m13 -82 c-3 -7 -11 -13 -18 -13 -7 0 -15 6 -17 13 -3 7 4 12
17 12 13 0 20 -5 18 -12z"/>
<path d="M10865 10440 c-11 -5 -96 -9 -190 -9 -93 -1 -176 -5 -184 -10 -8 -5
-11 -16 -8 -25 5 -12 21 -16 68 -16 74 0 139 -31 118 -57 -10 -12 -10 -16 2
-24 8 -5 21 -9 30 -9 23 0 30 -11 18 -27 -9 -10 -8 -17 1 -28 8 -10 9 -24 4
-42 -10 -34 -13 -74 -17 -228 -3 -96 -7 -126 -22 -148 -18 -27 -18 -28 3 -43
19 -13 21 -24 20 -107 -1 -50 -5 -100 -10 -110 -7 -13 -5 -24 7 -37 14 -15 16
-30 11 -77 -4 -32 -7 -76 -9 -98 -1 -22 -8 -50 -15 -62 -11 -19 -10 -24 8 -33
18 -10 19 -18 15 -98 -8 -157 -9 -161 -59 -211 -38 -38 -49 -44 -64 -35 -27
17 -27 53 0 83 51 55 51 56 37 116 -19 84 -41 98 -151 93 l-88 -3 -46 -46 -46
-46 13 -73 c12 -63 18 -75 49 -100 45 -35 63 -44 137 -69 106 -36 215 -23 316
37 21 12 41 22 45 22 4 0 28 24 55 52 57 64 97 140 97 186 0 18 4 41 9 51 15
28 24 385 19 783 -2 145 1 201 10 210 18 18 15 27 -13 38 -25 10 -33 34 -15
45 6 3 10 35 10 69 0 57 -3 66 -25 80 -26 17 -106 21 -140 6z m55 -1290 c0 -5
-2 -10 -4 -10 -3 0 -8 5 -11 10 -3 6 -1 10 4 10 6 0 11 -4 11 -10z"/>
<path d="M6054 3621 c39 -43 474 -249 866 -411 593 -243 1216 -434 1815 -555
254 -51 616 -105 705 -104 103 0 66 13 -101 34 -974 121 -2026 445 -3047 941
-117 56 -223 106 -235 110 -22 7 -22 6 -3 -15z"/>
</g>
</svg>
